<svg xmlns="http://www.w3.org/2000/svg"  viewBox="0 0 24 24" width="48px" height="48px"><path d="M 4.2460938 1.9902344 A 1.250125 1.250125 0 0 0 3.0039062 3.3769531 L 4.7246094 19.056641 A 1.250125 1.250125 0 0 0 5.6015625 20.115234 L 11.632812 21.96875 A 1.250125 1.250125 0 0 0 12.365234 21.96875 L 18.396484 20.115234 A 1.250125 1.250125 0 0 0 19.271484 19.056641 L 20.992188 3.3769531 A 1.250125 1.250125 0 0 0 19.75 1.9902344 L 4.2460938 1.9902344 z M 5.6425781 4.4902344 L 18.355469 4.4902344 L 16.876953 17.966797 L 11.998047 19.464844 L 7.1210938 17.966797 L 5.6425781 4.4902344 z M 8.3574219 5.9902344 A 1.250125 1.250125 0 1 0 8.3574219 8.4902344 L 14.232422 8.4902344 L 14.083984 9.75 L 11.998047 9.75 A 1.250125 1.250125 0 1 0 11.998047 12.25 L 13.789062 12.25 L 13.582031 14.015625 L 11.998047 14.472656 L 10.412109 14.015625 L 10.310547 13.160156 A 1.250125 1.250125 0 1 0 7.828125 13.453125 L 8.0273438 15.134766 A 1.250125 1.250125 0 0 0 8.921875 16.1875 L 11.652344 16.974609 A 1.250125 1.250125 0 0 0 12.345703 16.974609 L 15.072266 16.1875 A 1.250125 1.250125 0 0 0 15.96875 15.132812 L 16.878906 7.3867188 A 1.250125 1.250125 0 0 0 15.638672 5.9902344 L 8.3574219 5.9902344 z"/></svg>